<svg width="40" height="40" viewBox="0 0 40 40" fill="none" xmlns="http://www.w3.org/2000/svg">
    <g clip-path="url(#clip0_1_2)">
        <rect width="40" height="40" rx="2" fill="#3459E6"/>
        <path d="M4 19.8333C4 17.6453 4.41614 15.5881 5.24842 13.6618C6.08067 11.7356 7.2094 10.0598 8.63462 8.63463C10.0598 7.2094 11.7356 6.08067 13.6618 5.24842C15.5881 4.41614 17.6453 4 19.8333 4C23.5605 4 26.8265 5.12449 29.6314 7.37346C32.4362 9.62238 34.2667 12.4698 35.1228 15.9157C35.2047 16.239 35.1787 16.544 35.0448 16.8307C34.9109 17.1174 34.6887 17.2939 34.3783 17.3602C34.0876 17.4107 33.8262 17.341 33.594 17.1512C33.3618 16.9614 33.204 16.7223 33.1207 16.4338C32.605 14.312 31.6378 12.4193 30.219 10.7559C28.8002 9.09241 27.052 7.84043 24.9743 6.99996V7.74354C24.9743 8.69013 24.6451 9.50584 23.9866 10.1907C23.3281 10.8755 22.5256 11.2179 21.579 11.2179H18.1047V14.6923C18.1047 15.1566 17.9318 15.5476 17.586 15.8653C17.2402 16.183 16.8311 16.3418 16.3589 16.3418H12.9636V19.8333H15.4743C15.8465 19.8333 16.1567 19.9575 16.4051 20.2059C16.6535 20.4543 16.7777 20.7645 16.7777 21.1367V24.9295H14.6922L6.44442 16.6923C6.33828 17.2151 6.25333 17.7383 6.18958 18.2621C6.12583 18.7858 6.09396 19.3095 6.09396 19.8333C6.09396 23.3622 7.25992 26.4312 9.59183 29.0403C11.9238 31.6495 14.8532 33.1282 18.3803 33.4765C18.6699 33.5047 18.9093 33.6268 19.0985 33.8427C19.2878 34.0587 19.3824 34.3165 19.3824 34.6164C19.3824 34.9091 19.2739 35.1498 19.057 35.3386C18.84 35.5273 18.5806 35.6046 18.2788 35.5704C14.2496 35.1751 10.8625 33.4851 8.11754 30.5005C5.37251 27.5158 4 23.9601 4 19.8333ZM34.3226 34.1303L29.3942 29.251C28.8536 29.6363 28.2667 29.9347 27.6335 30.1463C27.0003 30.3578 26.3487 30.4636 25.6787 30.4636C23.8793 30.4636 22.3502 29.835 21.0913 28.5778C19.8324 27.3207 19.203 25.7937 19.203 23.9967C19.203 22.1997 19.8316 20.6738 21.0888 19.4188C22.3459 18.1638 23.8729 17.5363 25.6699 17.5363C27.4668 17.5363 28.9928 18.1658 30.2478 19.4246C31.5028 20.6835 32.1303 22.2127 32.1303 24.012C32.1303 24.6927 32.019 25.3523 31.7964 25.9909C31.5738 26.6294 31.2702 27.2247 30.8856 27.7767L35.797 32.656C36.0085 32.8568 36.1171 33.0999 36.1228 33.3851C36.1285 33.6703 36.0256 33.9187 35.814 34.1303C35.6132 34.3311 35.3673 34.4315 35.0763 34.4315C34.7854 34.4315 34.5342 34.3311 34.3226 34.1303ZM25.6627 28.3696C26.8847 28.3696 27.9191 27.9475 28.766 27.1033C29.6129 26.259 30.0363 25.2258 30.0363 24.0039C30.0363 22.7819 29.6142 21.7475 28.7699 20.9006C27.9256 20.0537 26.8925 19.6303 25.6705 19.6303C24.4486 19.6303 23.4141 20.0524 22.5672 20.8967C21.7204 21.7409 21.297 22.7741 21.297 23.996C21.297 25.218 21.7191 26.2524 22.5633 27.0993C23.4076 27.9462 24.4407 28.3696 25.6627 28.3696Z"
              fill="white"/>
    </g>
    <defs>
        <clipPath id="clip0_1_2">
            <rect width="40" height="40" fill="white"/>
        </clipPath>
    </defs>
</svg>